<svg width="24" height="24" viewBox="0 0 24 24" fill="none" xmlns="http://www.w3.org/2000/svg">
<path d="M16.34 9.32199C16.4361 9.23243 16.5136 9.12482 16.568 9.00532C16.6225 8.88581 16.6529 8.75675 16.6575 8.62549C16.6621 8.49423 16.6408 8.36336 16.5948 8.24034C16.5488 8.11731 16.4791 8.00455 16.3895 7.90849C16.2999 7.81243 16.1923 7.73495 16.0728 7.68047C15.9533 7.62599 15.8243 7.59559 15.693 7.59099C15.5618 7.5864 15.4309 7.6077 15.3079 7.65368C15.1848 7.69966 15.0721 7.76943 14.976 7.85899L12.05 10.587L9.32201 7.65999C9.13948 7.47303 8.89102 7.36495 8.6298 7.35885C8.36859 7.35276 8.11536 7.44915 7.92431 7.62739C7.73327 7.80564 7.61957 8.05158 7.60755 8.31259C7.59553 8.5736 7.68615 8.82894 7.86001 9.02399L10.588 11.95L7.66101 14.678C7.56155 14.7666 7.48082 14.8743 7.42354 14.9946C7.36626 15.1149 7.3336 15.2454 7.32747 15.3785C7.32135 15.5116 7.34188 15.6445 7.38786 15.7696C7.43384 15.8946 7.50434 16.0092 7.59523 16.1066C7.68612 16.2041 7.79555 16.2823 7.91711 16.3369C8.03867 16.3914 8.16991 16.4211 8.3031 16.4242C8.4363 16.4273 8.56877 16.4038 8.69274 16.355C8.81671 16.3061 8.92968 16.2331 9.02501 16.14L11.951 13.413L14.679 16.339C14.7671 16.4403 14.8747 16.5228 14.9953 16.5816C15.116 16.6405 15.2472 16.6744 15.3813 16.6814C15.5153 16.6884 15.6494 16.6684 15.7756 16.6225C15.9017 16.5766 16.0173 16.5058 16.1155 16.4142C16.2137 16.3227 16.2924 16.2123 16.3471 16.0897C16.4017 15.9671 16.4311 15.8347 16.4334 15.7005C16.4358 15.5663 16.4112 15.433 16.3609 15.3085C16.3107 15.184 16.2359 15.0709 16.141 14.976L13.414 12.05L16.34 9.32199Z" fill="#242742"/>
<path fill-rule="evenodd" clip-rule="evenodd" d="M1 12C1 5.925 5.925 1 12 1C18.075 1 23 5.925 23 12C23 18.075 18.075 23 12 23C5.925 23 1 18.075 1 12ZM12 21C10.8181 21 9.64778 20.7672 8.55585 20.3149C7.46392 19.8626 6.47177 19.1997 5.63604 18.364C4.80031 17.5282 4.13738 16.5361 3.68508 15.4442C3.23279 14.3522 3 13.1819 3 12C3 10.8181 3.23279 9.64778 3.68508 8.55585C4.13738 7.46392 4.80031 6.47177 5.63604 5.63604C6.47177 4.80031 7.46392 4.13738 8.55585 3.68508C9.64778 3.23279 10.8181 3 12 3C14.3869 3 16.6761 3.94821 18.364 5.63604C20.0518 7.32387 21 9.61305 21 12C21 14.3869 20.0518 16.6761 18.364 18.364C16.6761 20.0518 14.3869 21 12 21Z" fill="#242742"/>
</svg>
